<svg width="800" height="800" viewBox="0 0 800 800" fill="none" xmlns="http://www.w3.org/2000/svg">
<path d="M317.16 465.4C351.112 504.172 347.208 563.124 308.44 597.076C269.668 631.028 210.716 627.124 176.764 588.356L317.16 465.4Z" fill="#2D0F78"/>
<path d="M317.16 465.4C283.208 426.628 224.252 422.724 185.484 456.68C146.712 490.632 142.808 549.588 176.764 588.356L317.16 465.4Z" fill="#3B0AB9"/>
<path d="M403.084 257.616C437.036 296.388 433.132 355.34 394.364 389.292C355.592 423.244 296.64 419.34 262.688 380.568L403.084 257.616Z" fill="#2D0F78"/>
<path d="M403.084 257.616C369.132 218.844 310.176 214.94 271.408 248.896C232.636 282.848 228.732 341.804 262.688 380.572L403.084 257.616Z" fill="#3B0AB9"/>
<path d="M538.544 444.244C572.496 483.016 568.592 541.968 529.824 575.92C491.052 609.872 432.1 605.968 398.148 567.2L538.544 444.244Z" fill="#2D0F78"/>
<path d="M538.544 444.244C504.592 405.472 445.636 401.568 406.868 435.524C368.096 469.476 364.192 528.432 398.148 567.2L538.544 444.244Z" fill="#3B0AB9"/>
<path d="M473.596 291.536C500.236 253.012 570.96 255.752 631.564 297.656C692.168 339.564 719.7 404.768 693.06 443.292L473.596 291.536Z" fill="#30C03F"/>
<path d="M473.596 291.536C446.956 330.06 474.488 395.264 535.092 437.172C595.696 479.08 666.42 481.82 693.06 443.292L473.596 291.536Z" fill="#97CF43"/>
<path d="M478.908 125.904C507.116 127.772 527.608 165.256 524.672 209.632C521.736 254.008 496.488 288.468 468.28 286.6L478.908 125.904Z" fill="#30C03F"/>
<path d="M478.908 125.904C450.7 124.036 425.452 158.5 422.516 202.872C419.58 247.248 440.068 284.732 468.28 286.6L478.908 125.904Z" fill="#97CF43"/>
</svg>
