<svg width="55" height="51" viewBox="0 0 55 51" fill="none" xmlns="http://www.w3.org/2000/svg">
<path d="M55 28.9004H13C13 40.4984 22.402 49.9004 34 49.9004C45.598 49.9004 55 40.4974 55 28.9004Z" fill="#F4C44E"/>
<path d="M51 28.9004H17C17 38.2894 24.611 45.9004 34 45.9004C43.389 45.9004 51 38.2884 51 28.9004Z" fill="#F9EA80"/>
<path d="M35 28.9004H33V45.9004H35V28.9004Z" fill="#F9DA49"/>
<path d="M46.7072 40.1926L34.707 28.1924L33.2928 29.6066L45.293 41.6068L46.7072 40.1926Z" fill="#F9DA49"/>
<path d="M34.7072 29.6056L33.293 28.1914L21.2928 40.1916L22.707 41.6058L34.7072 29.6056Z" fill="#F9DA49"/>
<path d="M47.983 9.17901L48.38 8.78201C49.936 7.22601 49.936 4.68101 48.38 3.12501C46.824 1.56901 44.279 1.56901 42.723 3.12501L42.483 3.36501C33.392 -2.76699 19.376 -0.397995 9.48901 9.48901C-0.397995 19.376 -2.76699 33.393 3.36501 42.484L3.12501 42.724C1.56901 44.28 1.56901 46.825 3.12501 48.381C4.68101 49.937 7.226 49.937 8.782 48.381L9.179 47.984C14.727 51.294 21.896 51.631 28.818 49.229C19.731 46.918 13 38.706 13 28.9H49.202C51.635 21.952 51.306 14.749 47.983 9.17901ZM32.885 6.91901C32.45 8.12401 31.273 8.47001 30.13 8.21201C30.718 8.34501 30.041 8.21601 29.92 8.20501C29.765 8.19101 29.61 8.17801 29.455 8.17601C29.404 8.17501 29.354 8.17601 29.303 8.17601C29.277 8.17801 29.252 8.18001 29.209 8.18301C29.042 8.20101 28.876 8.22201 28.71 8.24701C27.551 8.42201 26.427 7.66301 26.225 6.48901C26.029 5.35201 26.823 4.17901 27.983 4.00401C29.227 3.81601 30.375 3.88901 31.592 4.16401C32.739 4.42301 33.246 5.91901 32.885 6.91901Z" fill="#F9D70B"/>
</svg>
